<svg width="70" height="70" viewBox="0 0 70 70" fill="none" xmlns="http://www.w3.org/2000/svg">
<path d="M13.0794 46.5701C12.9527 46.5756 12.8273 46.5977 12.7063 46.6356C4.51172 49.0894 0 52.7252 0 56.8752C0 63.2382 12.2669 70.0001 35 70.0001C57.7331 70.0001 70 63.2382 70 56.8752C70 52.7851 65.5987 49.1819 57.6099 46.7296C56.8451 46.5094 56.045 46.9429 55.8119 47.7038C55.5787 48.4647 55.9986 49.272 56.7554 49.5181C63.1256 51.4734 67.0833 54.2918 67.0833 56.8752C67.0833 61.703 53.9071 67.0834 35 67.0834C16.0929 67.0834 2.91667 61.703 2.91667 56.8752C2.91667 54.2448 6.98905 51.3894 13.5437 49.4269C14.2498 49.2201 14.6912 48.5197 14.5732 47.7935C14.4552 47.0673 13.8147 46.5427 13.0794 46.5701Z" fill="#23B0A5"/>
<path d="M56.8295 0.000728241C56.8076 0.00213561 56.7857 0.00403421 56.764 0.00642403C49.853 0.40277 43.0956 2.20549 36.9056 5.30422C32.5412 7.64299 29.1124 11.4096 27.1928 15.9739L13.2247 51.9733C13.0153 52.5116 13.1438 53.1228 13.5523 53.5313C13.8079 53.7877 19.9852 59.7918 35 59.7918C50.0149 59.7918 56.1922 53.7877 56.4478 53.5313C56.8503 53.128 56.9815 52.5275 56.7839 51.9932L42.2006 12.6186C42.0286 12.1177 41.5987 11.7493 41.0773 11.6562C40.5559 11.5631 40.025 11.76 39.6904 12.1705C39.3557 12.581 39.2699 13.1407 39.4662 13.6326L53.6878 52.0302C51.7972 53.4202 45.9924 56.8751 35 56.8751C24.0276 56.8751 18.2249 53.433 16.3265 52.0416L29.893 17.079C31.5493 13.1484 34.5029 9.90434 38.2614 7.88761C43.4269 5.28272 49.0336 3.66565 54.7929 3.11959C52.7835 7.73579 49.6725 11.7886 45.7325 14.9229C45.3253 15.2545 45.1279 15.7794 45.2157 16.2971C45.3034 16.8148 45.6628 17.2454 46.1564 17.4243C46.6501 17.6032 47.2019 17.5029 47.6009 17.1616C56.6422 9.62707 58.2415 2.06502 58.3049 1.74672C58.393 1.31014 58.2768 0.857216 57.9893 0.517022C57.7018 0.176827 57.2746 -0.0133319 56.8295 0.000728241Z" fill="#23B0A5"/>
<path d="M59.7489 26.2504C58.9602 26.2735 58.3333 27.7087 58.3333 27.7087V29.167H56.875C56.0695 29.167 55.4166 29.8199 55.4166 30.6253C55.4166 31.4307 56.0695 32.0837 56.875 32.0837H58.3333V33.542C58.3333 34.3474 58.9862 35.0003 59.7916 35.0003C60.597 35.0003 61.25 34.3474 61.25 33.542V32.0837H62.7083C63.5137 32.0837 64.1666 31.4307 64.1666 30.6253C64.1666 29.8199 63.5137 29.167 62.7083 29.167C62.7083 29.167 61.5593 29.4764 61.25 29.167C60.9406 28.8577 61.25 27.7087 61.25 27.7087C61.2501 27.3144 61.0906 26.9369 60.8078 26.6621C60.525 26.3874 60.143 26.2388 59.7489 26.2504Z" fill="#23B0A5"/>
<path d="M11.6239 8.75063C10.8353 8.77374 10.208 9.41993 10.2083 10.2089V13.1256C10.2083 13.931 10.8612 14.5839 11.6667 14.5839C12.4721 14.5839 13.125 13.931 13.125 13.1256V10.2089C13.1252 9.81466 12.9657 9.4371 12.6829 9.16235C12.4001 8.8876 12.0181 8.73908 11.6239 8.75063ZM5.83333 14.5839C5.02792 14.5839 4.375 15.2368 4.375 16.0422C4.375 16.8476 5.02792 17.5005 5.83333 17.5005H8.75C9.55541 17.5005 10.2083 16.8476 10.2083 16.0422C10.2083 15.2368 9.55541 14.5839 8.75 14.5839H5.83333ZM14.5833 14.5839C13.7779 14.5839 13.125 15.2368 13.125 16.0422C13.125 16.8476 13.7779 17.5005 14.5833 17.5005H17.5C18.3054 17.5005 18.9583 16.8476 18.9583 16.0422C18.9583 15.2368 18.3054 14.5839 17.5 14.5839H14.5833ZM11.6667 17.5005C10.8612 17.5005 10.2083 18.1534 10.2083 18.9589V21.8755C10.2083 22.6809 10.8612 23.3338 11.6667 23.3338C12.4721 23.3338 13.125 22.6809 13.125 21.8755V18.9589C13.125 18.1534 12.4721 17.5005 11.6667 17.5005Z" fill="#23B0A5"/>
</svg>
